<svg width="303" height="320" viewBox="0 0 303 320" fill="none" xmlns="http://www.w3.org/2000/svg">
<g clip-path="url(#clip0)">
<path d="M151.5 320C235.171 320 303 316.523 303 312.233C303 307.944 235.171 304.466 151.5 304.466C67.8289 304.466 0 307.944 0 312.233C0 316.523 67.8289 320 151.5 320Z" fill="#E6E6E6" fill-opacity="0.29"/>
<path d="M229.785 72.899H228.064V25.6313C228.064 22.0387 227.358 18.4813 225.986 15.1621C224.615 11.843 222.605 8.82714 220.071 6.28678C217.537 3.74642 214.529 1.7313 211.218 0.356474C207.908 -1.01835 204.359 -1.72596 200.776 -1.72595H100.886C97.3026 -1.72596 93.7541 -1.01835 90.4434 0.356477C87.1327 1.73131 84.1244 3.74643 81.5905 6.28679C79.0566 8.82714 77.0465 11.843 75.6752 15.1621C74.3038 18.4813 73.598 22.0387 73.598 25.6313V284.945C73.598 288.538 74.3038 292.095 75.6752 295.415C77.0465 298.734 79.0566 301.75 81.5905 304.29C84.1244 306.83 87.1327 308.845 90.4434 310.22C93.7541 311.595 97.3026 312.303 100.886 312.303H200.776C204.359 312.303 207.908 311.595 211.218 310.22C214.529 308.845 217.537 306.83 220.071 304.29C222.605 301.75 224.615 298.734 225.986 295.415C227.358 292.095 228.064 288.538 228.064 284.945V106.545H229.785V72.899Z" fill="#3F3D56"/>
<path d="M201.877 5.3915H188.838C189.437 6.86531 189.666 8.46434 189.504 10.0477C189.342 11.6311 188.794 13.1503 187.909 14.4714C187.023 15.7924 185.827 16.8749 184.426 17.6234C183.025 18.3719 181.462 18.7635 179.874 18.7636H122.648C121.061 18.7635 119.497 18.3719 118.096 17.6234C116.695 16.8749 115.499 15.7924 114.613 14.4714C113.728 13.1503 113.18 11.6311 113.018 10.0477C112.856 8.46433 113.085 6.8653 113.684 5.39148H101.506C98.83 5.39148 96.18 5.91991 93.7076 6.94662C91.2352 7.97332 88.9887 9.47819 87.0964 11.3753C85.2041 13.2724 83.703 15.5246 82.6789 18.0033C81.6548 20.482 81.1277 23.1386 81.1277 25.8215V284.755C81.1277 287.438 81.6548 290.095 82.6789 292.573C83.703 295.052 85.2041 297.304 87.0964 299.201C88.9887 301.099 91.2352 302.603 93.7076 303.63C96.18 304.657 98.83 305.185 101.506 305.185H201.877C204.553 305.185 207.203 304.657 209.675 303.63C212.148 302.603 214.394 301.099 216.286 299.201C218.179 297.304 219.68 295.052 220.704 292.573C221.728 290.095 222.255 287.438 222.255 284.755V25.8216C222.255 23.1386 221.728 20.482 220.704 18.0033C219.68 15.5246 218.179 13.2724 216.286 11.3753C214.394 9.47821 212.148 7.97334 209.675 6.94664C207.203 5.91993 204.553 5.39149 201.877 5.3915Z" fill="white"/>
<path d="M165.646 74.9517H130.069V78.2638H165.646V74.9517Z" fill="#736DFD"/>
<path d="M192.076 86.4094H130.069V89.7216H192.076V86.4094Z" fill="#E6E6E6"/>
<path d="M192.016 97.8674H130.069V101.18H192.016V97.8674Z" fill="#E6E6E6"/>
<path d="M122.696 75.0007H96.266V101.498H122.696V75.0007Z" fill="#736DFD"/>
<path d="M165.646 144.508H130.069V147.82H165.646V144.508Z" fill="#736DFD"/>
<path d="M192.076 155.965H130.069V159.277H192.076V155.965Z" fill="#E6E6E6"/>
<path d="M192.016 167.423H130.069V170.735H192.016V167.423Z" fill="#E6E6E6"/>
<path d="M122.696 144.557H96.266V171.054H122.696V144.557Z" fill="#736DFD"/>
<path d="M165.646 214.063H130.069V217.376H165.646V214.063Z" fill="#736DFD"/>
<path d="M192.076 225.521H130.069V228.833H192.076V225.521Z" fill="#E6E6E6"/>
<path d="M192.016 236.979H130.069V240.291H192.016V236.979Z" fill="#E6E6E6"/>
<path d="M122.696 214.113H96.266V240.61H122.696V214.113Z" fill="#736DFD"/>
</g>
<defs>
<clipPath id="clip0">
<rect width="303" height="320" fill="white"/>
</clipPath>
</defs>
</svg>
