<?xml version="1.0" encoding="utf-8"?>
<!-- Generator: Adobe Illustrator 24.0.0, SVG Export Plug-In . SVG Version: 6.00 Build 0)  -->
<svg version="1.1" xmlns="http://www.w3.org/2000/svg" xmlns:xlink="http://www.w3.org/1999/xlink" x="0px" y="0px"
	 viewBox="0 0 545.9 471" style="enable-background:new 0 0 545.9 471;" xml:space="preserve">
<style type="text/css">
	.st0{fill:#5F5D7E;}
	.st1{opacity:0.1;enable-background:new    ;}
	.st2{fill:#6C63FF;}
	.st3{fill:#474157;}
	.st4{opacity:0.16;fill:#736DFD;}
	.st5{fill:#2F2E41;}
	.st6{fill:#9F616A;}
	.st7{fill:#736DFD;}
	.st8{fill:none;stroke:#736DFD;stroke-width:3;stroke-linecap:round;stroke-miterlimit:10;}
	.st9{fill:#EDEDF4;}
	.st10{fill:#E6E8EC;}
	.st11{opacity:0.1;}
</style>
<g id="Layer_3">
	<polygon class="st0" points="347.3,247.5 347.1,259.2 345.3,353.8 330.5,388.6 279.4,389.1 279.4,252.9 332.7,248.7 	"/>
	<polygon class="st1" points="347.3,247.5 347.1,259.2 345.3,353.8 330.5,388.6 279.4,389.1 279.4,252.9 332.7,248.7 	"/>
	<polygon class="st0" points="347.3,247.5 347.1,259.2 345.3,353.8 330.5,388.6 334.4,259.4 334.4,259.4 332.7,248.7 	"/>
	<polygon class="st1" points="332.7,248.7 347.3,247.5 347.1,259.2 334.4,259.4 279.4,260 279.4,252.9 	"/>
	<polygon class="st0" points="545.9,241.9 545.9,252.9 222.1,259.4 222.1,245.4 252.5,234.3 517.7,230.8 	"/>
	<polygon class="st1" points="545.9,241.9 545.9,252.9 222.1,259.4 222.1,245.4 	"/>
	<ellipse class="st1" cx="435.3" cy="236.1" rx="26.4" ry="1.7"/>
	<path class="st2" d="M457.4,170.9c-0.6,0.8-1,1.6-1.3,2.5c-0.1,0.2-0.2,0.5-0.2,0.7c-0.1-0.1-0.3-0.1-0.5-0.2
		c-0.7-0.2-1.4-0.2-2.1-0.2c0-0.3,0-0.6,0-0.9c0.1-3.1-0.3-7.4-3.2-5.6c-2.8,1.8-0.8,4.7,1,6.6l0.5,0.5c-1.7,1.2-2,3.9-2.3,6.8
		c-0.3,2.9-2.7,6-4.3,7.8c-0.2,0.2-0.3,0.3-0.5,0.5c-1.3-1.1-3-1.5-4.7-1.2c-0.1-0.3-0.1-0.5-0.2-0.8c-1.3-4.7-4-12.9-7.5-14.7
		l0.5-0.6c1.5-1.9,3.1-4.8,0.7-5.5s-2.7,2.5-2.5,4.9c0,0.3,0,0.6,0.1,0.9c-1,0-1.9,0.5-2.6,1.3l-0.4-0.4c-2-2.3-5.6-6.1-6.7-3.3
		c-1,2.6,2.2,6,4.4,8l0.1,0.1c-1.5,6.2,5.1,11.2,8.7,13.4l0.5,0.3c-4.9,5.8-8,16.6-8,16.6l13.8,2.5c0,0,9.1-7.9,8-15.3h0.1
		c9.1-1.8,11.2-11.6,9.8-17.3l0.2-0.1c1.7-0.7,3.1-1.8,4.2-3.2C465.4,171.4,460,167.4,457.4,170.9z"/>
	<path class="st1" d="M457.4,170.9c-0.6,0.8-1,1.6-1.3,2.5c-0.1,0.2-0.2,0.5-0.2,0.7c-0.1-0.1-0.3-0.1-0.5-0.2
		c-0.7-0.2-1.4-0.2-2.1-0.2c0-0.3,0-0.6,0-0.9c0.1-3.1-0.3-7.4-3.2-5.6c-2.8,1.8-0.8,4.7,1,6.6l0.5,0.5c-1.7,1.2-2,3.9-2.3,6.8
		c-0.3,2.9-2.7,6-4.3,7.8c-0.2,0.2-0.3,0.3-0.5,0.5c-1.3-1.1-3-1.5-4.7-1.2c-0.1-0.3-0.1-0.5-0.2-0.8c-1.3-4.7-4-12.9-7.5-14.7
		l0.5-0.6c1.5-1.9,3.1-4.8,0.7-5.5s-2.7,2.5-2.5,4.9c0,0.3,0,0.6,0.1,0.9c-1,0-1.9,0.5-2.6,1.3l-0.4-0.4c-2-2.3-5.6-6.1-6.7-3.3
		c-1,2.6,2.2,6,4.4,8l0.1,0.1c-1.5,6.2,5.1,11.2,8.7,13.4l0.5,0.3c-4.9,5.8-8,16.6-8,16.6l13.8,2.5c0,0,9.1-7.9,8-15.3h0.1
		c9.1-1.8,11.2-11.6,9.8-17.3l0.2-0.1c1.7-0.7,3.1-1.8,4.2-3.2C465.4,171.4,460,167.4,457.4,170.9z"/>
	<path class="st2" d="M430,174.9l-1.6,4.7c0,0-0.9-0.6-2-1.6c-2.3-2-5.5-5.4-4.4-8c1.1-2.8,4.8,0.9,6.7,3.3
		C429.5,174.2,430,174.9,430,174.9z"/>
	<path class="st2" d="M433.4,172.2c-0.5,0.6-1,1.3-1.6,1.8c-0.1-0.8-0.2-1.6-0.3-2.5c-0.1-2.4,0.1-5.6,2.5-4.9
		C436.5,167.4,434.9,170.3,433.4,172.2z"/>
	<path class="st2" d="M454.2,172.9c0,1.6-0.2,2.8-0.2,2.8c-0.7-0.6-1.4-1.1-2-1.8c-1.8-1.9-3.8-4.8-1-6.6
		C453.9,165.6,454.3,169.9,454.2,172.9z"/>
	<path class="st2" d="M463.7,175c-1.1,1.4-2.6,2.5-4.2,3.2c-0.5,0.2-0.9,0.4-1.4,0.5l-1.9-2.7c0.2-0.9,0.5-1.7,0.8-2.6
		c0.3-0.9,0.8-1.7,1.3-2.5C460.9,167.4,466.2,171.4,463.7,175z"/>
	<path class="st1" d="M428.7,173.2c0.8,0.9,1.3,1.7,1.3,1.7l-1.6,4.7c0,0-0.9-0.6-2-1.6c0.3-1.5,0.9-2.9,1.8-4.1
		C428.4,173.6,428.5,173.4,428.7,173.2z"/>
	<path class="st1" d="M433.4,172.2c-0.5,0.6-1,1.3-1.6,1.8c-0.1-0.8-0.2-1.6-0.3-2.5C432.2,171.6,432.9,171.8,433.4,172.2z"/>
	<path class="st2" d="M441.3,190.9l-4,1.8c0,0-0.9-0.4-2.1-1.2c-4.2-2.6-12.7-9.1-7-16.8c5.7-7.7,10.4,6.1,12.3,12.8
		C441,189.5,441.3,190.9,441.3,190.9z"/>
	<path class="st1" d="M452,173.9c0.6-0.6,1.4-1,2.2-1c0,1.6-0.2,2.8-0.2,2.8C453.3,175.2,452.6,174.6,452,173.9z"/>
	<path class="st1" d="M459.4,178.2c-0.5,0.2-0.9,0.4-1.4,0.5l-1.9-2.7c0.2-0.9,0.5-1.7,0.8-2.6C458.1,174.1,459,175.9,459.4,178.2z"
		/>
	<path class="st2" d="M449.5,195.6l-0.7,0.1c-13.4,2-4.4-5.2-4.4-5.2s0.6-0.6,1.4-1.5c1.6-1.8,4.1-4.9,4.3-7.8
		c0.4-4.3,0.9-8.4,6-7.2C461.3,175.2,462.2,193,449.5,195.6z"/>
	<rect x="423.6" y="229" class="st3" width="25.6" height="6.7"/>
	<rect x="419.6" y="207" class="st3" width="33.5" height="23.5"/>
	<rect x="423.4" y="229" class="st1" width="25.6" height="6.7"/>
	<rect x="419.5" y="207.1" class="st1" width="33.5" height="23.5"/>
	<rect x="425.3" y="229" class="st3" width="25.6" height="6.7"/>
	<path class="st1" d="M440.5,187.5c0.6,2,0.9,3.4,0.9,3.4l-4,1.8c0,0-0.9-0.4-2.1-1.2C436.8,189.5,438.5,188,440.5,187.5z"/>
	<path class="st1" d="M449.5,195.6l-0.7,0.1c-13.4,2-4.4-5.2-4.4-5.2s0.6-0.6,1.4-1.5C448.3,191,449.4,193.3,449.5,195.6z"/>
	<path class="st2" d="M427.7,208.4c0,0,7.5-26.9,18.1-18.6c10.5,8.3-4.3,21.1-4.3,21.1L427.7,208.4z"/>
	<circle class="st1" cx="431.5" cy="178.9" r="0.8"/>
	<circle class="st1" cx="431.4" cy="182.8" r="0.8"/>
	<circle class="st1" cx="455.9" cy="179.7" r="0.8"/>
	<circle class="st1" cx="436.2" cy="199.8" r="0.8"/>
	<circle class="st1" cx="454.1" cy="186.2" r="0.8"/>
	<circle class="st1" cx="445.4" cy="194.9" r="0.8"/>
	<circle class="st1" cx="434.4" cy="180.6" r="0.8"/>
	<circle class="st1" cx="453.5" cy="182.2" r="0.8"/>
	<circle class="st1" cx="450.7" cy="188.7" r="0.8"/>
	<circle class="st1" cx="441.8" cy="199.2" r="0.8"/>
	<circle class="st1" cx="440" cy="195" r="0.8"/>
	<circle class="st1" cx="435.6" cy="185.7" r="0.8"/>
	<rect x="425.3" y="229" class="st1" width="25.6" height="2.5"/>
	<rect x="421.2" y="207" class="st3" width="33.5" height="23.5"/>
	<circle class="st1" cx="442.9" cy="203" r="0.8"/>
	<circle class="st1" cx="437.9" cy="204" r="0.8"/>
</g>
<g id="Layer_4">
	<path class="st4" d="M3.9,359.9c4.4-34.2,19.3-151.8,98.2-188.2c45.3-20.9,60.9,8.3,127.3-11.3c60.9-18,61.9-46.9,119.7-69
		c59.5-22.8,153.6-28.7,188.8,17.8c14,18.4,8.1,62.3-4.3,149.4c-15.3,107.6-30.4,134.8-48,154.8c-24.3,27.7-52.1,40-64.2,45.3
		c-70.9,30.7-107.9-3.7-230.8-7.6C85,447.7,36,470.6,10.3,437.6C-3.7,419.5-0.9,397.2,3.9,359.9z"/>
</g>
<g id="f6ab8ba1-7e68-4bec-bb42-3789208a6270">
	<circle class="st5" cx="138.3" cy="30.7" r="30.7"/>
	<path class="st6" d="M128.5,53.4c0,0,1.6,28.6-1.6,28.6c-3.2,0,19.8,13.5,19.8,13.5l14.3-7.9V78c0,0-19-2.4-11.1-23
		S128.5,53.4,128.5,53.4z"/>
	<polygon class="st6" points="61.8,366.9 59.4,390.7 67.3,393.1 73.7,386.7 76.1,366.9 	"/>
	<polygon class="st6" points="176.1,380.4 180,395.4 191.1,402.6 203.1,396.2 189.6,374 	"/>
	<circle class="st6" cx="136" cy="42.7" r="23"/>
	<path class="st6" d="M122.1,128.8l-5.6-2.4c0,0-9.5-5.6-10.3-16.7s7.9-25.4,7.9-25.4l12.7-4l14.9,12.1l0.2,19.6L122.1,128.8z"/>
	<path class="st6" d="M116.5,85.9l-3.2-1.6c0,0-15.9-0.8-17.5,18.3s-7.1,50.8-7.1,50.8s-12.7,22.2-11.9,46L70.5,220
		c0,0-8.7,30.2,1.6,30.2s9.5-32.5,9.5-32.5s19-46,20.6-54s15.1-45.2,11.1-55.6S116.5,85.9,116.5,85.9z"/>
	<path class="st6" d="M128.5,135.9v8.7c0,0,5.6,6.3,3.2,10.3s-4.8,11.9-4.8,11.9l11.1,17.5l37.3,3.2l7.4-49.7L128.5,135.9z"/>
	<path class="st6" d="M163.4,80.4l6.3-3.2c0,0,13.9-0.8,25-2.4l33.7,1.2l16.6-64.5c0,0,1.9-11.2,8.2-8.1s4.6,21.6,4.6,21.6
		s-8,49.4-18.3,62.9c-10.3,13.5-47.2,11.5-47.2,11.5s-10.7,3.2-9.9,8.7S163.4,80.4,163.4,80.4z"/>
	<path class="st5" d="M134,166.9c0,0-8.7-5.6-14.3,4s-15.9,11.9-22.2,40.5s-21.4,73.8-25.4,77S51.5,324.8,61,371.6h15.9l13.5-67.5
		c0,0,43.7-54,46.8-76.2l14.3,83.3c0,0,0.8,31.7,12.7,46.8l12.7,30.2l16.7-7.9l-19-76.2c0,0,9.5-77,3.2-98.4l-0.9-28.1
		C176.7,177.7,150.7,178.8,134,166.9z"/>
	<path class="st5" d="M67.3,386.7h-9.5c-1.6,0-14.3,10.3-8.7,15.9s14.3,15.9,14.3,15.9s31,3.9,31.7-1.6s-13.5-17.4-13.5-17.4
		l-4-12.7C77.7,386.7,69.7,378,67.3,386.7z"/>
	<path class="st5" d="M193.5,394.7c0,0-13.5-0.8-15.9-1.6s-7.1,20.6,0,22.2s36.5,4,36.5,4s23-0.8,21.4-7.1s-32.5-19-32.5-19
		S199.1,385.1,193.5,394.7z"/>
	<path class="st7" d="M130.8,79.6l-4-2.4l-4.8,4c0,0,14.3,9.5,11.1,18.3s-16.7,27-16.7,27s11.9,13.5,11.9,18.3c0,0,31-11.1,54,0
		c0,0,0-15.9,3.2-19s4.8-14.3-3.2-23.8c-5.6-7-10.6-14.4-15.1-22.2l-7.9-4.8l-4.1,1.3c0,0,8.1,9,0.1,9.8S134.8,84.3,130.8,79.6z"/>
	<path class="st5" d="M143.6,6.9c0,0-10.4,13.4-31.2,16.4S108,59,108,59s-5.9-11.9,5.9-22.3S143.6,20.3,143.6,6.9z"/>
	<path class="st5" d="M144.4,6.1c0,0,5.9,20.8,14.9,23.8s4.5,34.2-10.4,37.2c0,0,12.6-17.1,5.2-30.5S142.2,12.8,144.4,6.1z"/>
	<rect x="203.1" y="84.3" class="st7" width="13.3" height="6.8"/>
	
		<rect x="242.8" y="34.2" transform="matrix(0.9832 0.1824 -0.1824 0.9832 11.6932 -44.2715)" class="st7" width="7.4" height="14.5"/>
	<path class="st8" d="M255.4,54.3c3.3,0.3,6.3-2.1,6.7-5.4"/>
	<path class="st8" d="M255.5,60c6,0.4,11.5-4.4,12.4-10.8"/>
	<path class="st8" d="M255.6,66.9c9.2,0.5,17.9-7.2,19.4-17.2"/>
</g>
<g id="tablet">
	<path class="st3" d="M302.6,164.4h72.6c3,0,5.4,2.4,5.4,5.3v52.6c0,2.9-2.4,5.3-5.4,5.3h-72.6c-3,0-5.4-2.4-5.4-5.3v-52.6
		C297.1,166.8,299.6,164.4,302.6,164.4z"/>
	<rect x="303.9" y="170.1" class="st9" width="70.2" height="51.6"/>
	<ellipse class="st10" cx="301.1" cy="195.9" rx="1.2" ry="1.1"/>
	<ellipse class="st10" cx="377.2" cy="196" rx="1.9" ry="1.8"/>
	<path class="st1" d="M376.8,184.5l-0.9,0.2c0.2-0.1,0.5-0.2,0.7-0.2L376.8,184.5z"/>
	<g class="st11">
		<path d="M375.5,184.2c0.4-0.1,0.8-0.1,1.2-0.1c-0.6,0-1.1,0-1.7,0.1L375.5,184.2z"/>
	</g>
	<path class="st8" d="M305.7,155.5c-3.2-1.1-6.6,0.5-7.8,3.7"/>
	<path class="st8" d="M307,149.9c-5.7-1.8-12.2,1.5-14.6,7.5"/>
	<path class="st8" d="M308.6,143.2c-8.8-2.7-19.1,2.7-22.9,12"/>
</g>
</svg>
